<?xml version="1.0" standalone="no"?>
<!DOCTYPE svg PUBLIC "-//W3C//DTD SVG 20010904//EN"
 "http://www.w3.org/TR/2001/REC-SVG-20010904/DTD/svg10.dtd">
<svg version="1.0" xmlns="http://www.w3.org/2000/svg"
 width="2016.000000pt" height="2016.000000pt" viewBox="0 0 2016.000000 2016.000000"
 preserveAspectRatio="xMidYMid meet">
<metadata>
Created by potrace 1.11, written by Peter Selinger 2001-2013
</metadata>
<g transform="translate(0.000000,2016.000000) scale(0.100000,-0.100000)"
fill="#000000" stroke="none">
<path d="M2299 12876 c-2 -2 -55 -6 -117 -10 -62 -3 -123 -8 -135 -10 -12 -3
-44 -8 -72 -11 -117 -14 -179 -22 -213 -30 -15 -3 -36 -7 -47 -9 -109 -22
-296 -72 -340 -91 -16 -7 -48 -18 -70 -25 -172 -55 -454 -216 -625 -358 -67
-56 -196 -186 -230 -232 -14 -18 -30 -39 -37 -45 -20 -21 -99 -147 -136 -220
-37 -71 -87 -195 -102 -250 -5 -16 -9 -34 -11 -40 -19 -70 -45 -213 -50 -278
-12 -143 -7 -387 10 -463 2 -12 7 -39 10 -60 4 -22 9 -47 12 -56 3 -9 6 -25 8
-35 9 -46 59 -180 92 -246 39 -76 103 -180 116 -185 5 -2 8 -8 8 -13 0 -17
146 -169 221 -232 117 -97 327 -217 519 -297 97 -41 306 -114 355 -126 6 -1
60 -16 120 -33 61 -17 120 -33 133 -36 12 -2 30 -6 40 -9 9 -3 28 -7 42 -10
39 -7 122 -25 150 -31 14 -4 39 -8 55 -11 17 -3 39 -7 50 -9 18 -3 61 -11 105
-19 8 -2 28 -8 43 -14 15 -7 47 -15 70 -18 23 -3 52 -7 64 -9 12 -2 27 -6 34
-10 6 -4 25 -11 43 -15 17 -5 60 -17 96 -28 36 -11 126 -39 200 -62 74 -23
141 -43 147 -44 7 -1 24 -12 38 -24 14 -12 25 -20 25 -17 0 2 12 -7 27 -21 15
-14 40 -33 55 -42 24 -14 32 -30 45 -82 9 -41 10 -126 1 -152 -19 -54 -154
-171 -201 -173 -13 -1 -34 -9 -47 -18 -14 -8 -54 -18 -90 -20 -73 -6 -89 -9
-109 -21 -19 -12 -498 -15 -536 -3 -49 14 -121 23 -220 28 -27 1 -57 6 -65 10
-31 16 -56 22 -100 23 -25 1 -52 6 -60 11 -8 5 -24 11 -35 12 -11 2 -45 13
-75 24 -30 11 -62 22 -70 24 -42 10 -229 80 -340 125 -127 53 -277 126 -384
188 -122 71 -191 40 -263 -118 -18 -41 -38 -84 -43 -95 -43 -96 -70 -157 -70
-160 0 -3 -16 -40 -36 -82 -19 -43 -41 -91 -49 -108 -55 -125 -193 -431 -216
-481 -16 -34 -29 -73 -29 -87 0 -33 32 -72 88 -104 26 -15 49 -30 52 -33 17
-18 256 -141 370 -190 102 -44 288 -113 340 -125 8 -2 51 -14 95 -25 90 -24
107 -28 151 -35 17 -2 56 -13 85 -24 30 -11 77 -22 104 -24 28 -3 63 -10 79
-16 15 -6 57 -13 92 -16 36 -2 69 -7 74 -10 6 -3 18 -8 27 -10 80 -19 105 -24
153 -31 30 -4 282 -8 560 -8 393 -1 516 2 554 12 61 17 83 22 121 26 83 11
132 18 147 22 10 3 30 7 45 10 16 3 46 10 68 16 22 6 45 11 50 12 75 15 366
130 373 148 2 4 10 8 18 8 8 0 48 16 90 35 41 19 77 35 79 35 2 0 32 17 67 37
198 116 428 329 541 500 54 82 129 214 132 233 0 3 6 15 13 28 7 12 10 22 6
22 -3 0 -2 6 4 13 25 32 91 263 108 382 26 182 23 388 -6 530 -19 92 -21 100
-27 120 -4 11 -8 23 -9 28 -1 4 -2 8 -4 10 -1 1 -3 9 -5 17 -4 22 -45 118 -71
165 -115 213 -138 247 -235 344 -74 75 -141 125 -214 161 -16 8 -51 36 -78 63
-27 26 -53 47 -58 47 -5 0 -9 4 -9 9 0 5 -12 12 -27 16 -14 3 -37 15 -50 25
-13 10 -34 17 -46 15 -22 -4 -50 8 -131 58 -25 16 -63 30 -83 32 -32 2 -100
32 -148 64 -5 4 -25 8 -43 10 -17 1 -78 18 -135 38 -56 19 -109 36 -117 38 -8
2 -15 4 -15 5 0 1 -7 3 -15 5 -8 1 -51 12 -95 23 -44 11 -96 23 -115 26 -69
10 -105 17 -130 23 -30 7 -31 8 -101 22 -30 6 -75 14 -100 17 -24 2 -69 12
-99 21 -30 9 -57 17 -60 18 -3 1 -59 18 -125 39 -66 21 -167 53 -225 71 -265
82 -361 163 -355 298 2 29 10 69 19 90 21 49 144 171 176 175 14 2 31 9 38 14
6 6 12 8 12 5 0 -4 18 0 39 8 22 7 55 16 75 19 20 3 56 10 81 16 94 21 337 29
470 15 118 -12 193 -22 240 -32 17 -4 39 -7 50 -7 11 -1 26 -5 33 -9 6 -5 12
-6 12 -4 0 2 43 -3 95 -13 52 -10 95 -15 95 -11 0 3 4 1 8 -4 4 -6 72 -32 152
-59 80 -26 151 -53 157 -58 22 -18 166 -84 223 -103 30 -10 65 -25 78 -33 12
-8 47 -20 77 -27 49 -12 56 -11 86 7 60 36 57 30 258 518 84 201 157 376 163
390 6 14 12 30 13 35 2 6 12 30 23 55 55 118 68 194 40 228 -13 15 -106 59
-145 68 -41 9 -138 57 -153 75 -10 13 -90 49 -107 49 -19 0 -104 40 -114 53
-3 5 -10 8 -15 8 -5 -1 -22 3 -39 9 -16 5 -41 11 -55 14 -54 11 -70 15 -90 26
-12 7 -34 13 -48 14 -15 2 -63 14 -108 29 -78 25 -133 36 -204 42 -19 1 -71
10 -115 20 -44 9 -87 18 -95 20 -22 4 -159 24 -210 30 -25 3 -63 8 -85 11 -44
6 -590 15 -596 10z"/>
<path d="M5534 12764 c-18 -6 -35 -9 -38 -7 -9 9 -83 -75 -88 -99 -3 -14 -3
-225 -2 -469 3 -383 3 -3875 1 -4459 -1 -232 2 -258 35 -306 28 -41 69 -52
183 -47 44 2 98 3 120 3 41 -2 353 -3 525 -2 52 0 210 0 350 -1 140 0 291 1
335 3 45 2 85 1 90 -2 6 -3 91 -3 190 -1 99 2 207 2 240 1 66 -2 461 -2 540 0
28 1 195 0 373 -2 177 -2 324 0 326 3 3 4 37 4 78 1 40 -4 111 -5 158 -4 47 1
128 2 180 2 52 0 142 -1 200 -1 143 -1 191 25 214 117 18 70 15 1111 -3 1154
-15 36 -71 70 -108 67 -13 -1 -23 1 -23 5 0 4 -6 7 -12 7 -7 1 -42 5 -78 9
-36 5 -150 7 -255 6 -254 -4 -1388 -3 -1645 2 -115 2 -223 8 -247 15 -47 13
-79 49 -89 102 -9 49 -15 236 -13 439 1 96 1 364 1 595 0 231 0 524 0 650 -1
127 -1 451 -1 720 0 270 0 623 0 785 1 162 1 363 1 445 0 198 -16 236 -107
266 -55 18 -1379 21 -1431 3z"/>
<path d="M15344 12743 c-77 -59 -74 -34 -73 -565 1 -260 1 -574 1 -698 0 -124
-1 -286 0 -360 0 -74 0 -252 0 -395 0 -143 0 -307 0 -365 0 -99 0 -513 0 -720
0 -52 0 -194 0 -315 0 -121 0 -263 0 -315 0 -52 0 -174 0 -270 0 -96 0 -222 0
-280 0 -58 0 -195 0 -305 0 -110 0 -302 0 -427 -1 -247 3 -271 53 -318 l27
-25 236 -3 c130 -1 460 -4 732 -5 483 -3 497 -2 535 18 28 14 47 34 63 67 l24
47 0 438 c0 241 -1 496 -2 566 -2 221 8 231 233 229 82 -1 153 -4 158 -7 5 -4
9 -2 9 4 0 7 9 7 23 3 39 -14 639 -4 767 12 19 3 60 7 91 10 63 6 120 14 161
22 15 3 39 7 55 9 15 2 39 7 53 10 14 3 36 7 50 10 138 25 393 116 545 193 61
30 120 60 132 66 13 6 23 14 23 19 0 4 5 7 11 7 9 0 123 74 139 90 3 3 23 18
45 34 57 42 59 44 175 158 58 57 116 118 130 136 14 19 31 40 38 47 25 27 142
209 142 221 0 7 3 14 8 16 7 3 66 115 68 127 0 3 8 23 17 44 40 93 83 226 101
320 4 15 8 38 11 52 23 113 30 206 30 385 0 157 -7 265 -21 320 -3 14 -6 33
-5 44 0 33 -66 304 -89 361 -5 11 -19 49 -33 85 -25 64 -77 176 -100 215 -32
55 -121 191 -131 201 -6 6 -22 25 -36 43 -54 71 -250 257 -284 270 -6 2 -16
10 -24 17 -37 38 -358 214 -388 214 -4 0 -60 25 -123 56 -64 32 -125 60 -136
64 -85 32 -157 52 -205 55 -19 2 -35 4 -35 5 0 1 -11 3 -25 6 -14 2 -45 11
-70 19 -25 8 -62 13 -82 12 -21 -2 -39 0 -40 4 -2 4 -21 10 -43 13 -22 4 -53
8 -70 11 -16 2 -79 6 -140 9 -60 2 -123 7 -140 11 -16 3 -596 8 -1288 9
l-1258 3 -45 -34z m2407 -1336 c42 -2 82 -8 89 -12 9 -6 11 -4 5 5 -5 8 -4 11
1 7 5 -3 28 -8 52 -11 23 -3 60 -8 82 -12 61 -8 166 -49 190 -74 3 -3 17 -13
33 -23 15 -10 58 -44 95 -76 65 -56 71 -65 106 -157 49 -127 64 -211 61 -326
-6 -186 -57 -320 -165 -428 -36 -36 -83 -74 -105 -85 -22 -11 -42 -23 -45 -26
-17 -19 -198 -70 -300 -85 -19 -2 -37 -8 -40 -12 -3 -4 -72 -8 -155 -10 -181
-3 -165 -3 -195 1 -14 2 -31 -1 -37 -6 -7 -5 -13 -6 -13 -1 0 11 -321 11 -338
0 -7 -4 -12 -3 -12 2 0 5 -17 8 -37 6 -20 -1 -42 0 -49 3 -24 9 -35 72 -34
200 0 70 2 351 3 623 l3 495 179 5 c193 5 502 4 626 -3z"/>
<path d="M11830 12129 c-71 -14 -83 -19 -116 -44 -37 -28 -70 -84 -80 -136 -4
-19 -7 -106 -8 -194 -1 -92 -7 -171 -14 -187 -11 -27 -70 -78 -90 -78 -7 0
-12 -3 -12 -7 0 -5 -17 -9 -38 -10 -20 -1 -44 -4 -52 -5 -25 -6 -140 -72 -140
-81 0 -22 -90 46 -174 132 -102 104 -121 121 -133 121 -4 0 -21 11 -37 25 -30
26 -83 45 -125 45 -13 0 -49 -12 -80 -26 -45 -22 -101 -72 -288 -259 -127
-128 -234 -242 -238 -254 -3 -12 -10 -21 -15 -21 -11 0 -37 -79 -35 -110 4
-61 43 -117 184 -264 48 -48 91 -94 97 -100 43 -46 44 -99 2 -163 -34 -49 -37
-56 -45 -108 -6 -37 -41 -106 -62 -123 -31 -25 -86 -43 -126 -42 -243 7 -333
-3 -373 -41 -12 -10 -25 -19 -31 -19 -13 0 -51 -81 -56 -121 -8 -56 -8 -650
-1 -706 10 -66 58 -125 118 -145 24 -8 50 -14 58 -13 8 0 20 -5 27 -11 8 -8
67 -11 190 -10 208 2 215 -1 228 -92 4 -29 11 -54 16 -58 5 -3 9 -13 9 -23 0
-9 8 -26 18 -37 9 -10 17 -28 17 -39 -1 -25 22 -66 47 -83 17 -13 17 -14 -1
-50 -11 -20 -54 -70 -96 -111 -63 -60 -117 -121 -184 -206 -16 -21 -38 -101
-34 -125 6 -38 39 -101 73 -140 68 -76 175 -180 185 -180 7 0 17 -11 23 -24 6
-13 28 -37 49 -52 21 -16 42 -35 47 -43 25 -41 98 -108 160 -149 109 -71 163
-66 291 27 28 20 70 58 95 85 127 139 184 174 223 138 12 -10 58 -33 102 -51
44 -18 89 -36 100 -41 11 -4 42 -16 69 -27 26 -10 51 -26 55 -35 3 -10 4 -50
0 -90 -7 -98 -3 -273 7 -290 5 -7 9 -20 11 -28 3 -22 24 -61 55 -101 49 -64
64 -67 444 -63 186 2 349 5 362 8 12 4 32 8 44 11 40 9 98 55 118 95 21 41 24
76 20 221 -5 181 57 288 200 345 36 14 83 34 105 43 22 9 45 17 50 16 50 -5
78 -21 112 -63 39 -47 115 -125 149 -152 108 -85 146 -104 196 -96 21 4 47 10
56 15 141 72 168 92 267 204 39 43 106 116 150 160 111 113 153 168 174 224
22 60 19 90 -15 153 -27 50 -193 225 -223 235 -27 9 -56 58 -56 95 0 19 10 55
21 80 12 25 25 60 29 78 3 17 10 32 15 32 4 0 18 34 31 76 34 108 32 107 252
109 112 1 200 7 229 14 53 15 128 79 128 109 0 10 3 22 7 25 15 16 22 497 9
660 -9 111 -31 172 -77 211 -36 30 -94 48 -158 47 -48 -1 -50 -1 -145 -1 -32
0 -61 -2 -64 -4 -2 -3 -13 -1 -23 4 -10 6 -20 6 -23 2 -3 -5 -22 -8 -42 -7
-46 3 -79 37 -94 98 -6 23 -27 75 -48 116 -30 61 -37 84 -36 131 1 71 24 107
156 241 141 143 169 216 121 310 -23 43 -105 137 -149 170 -11 8 -44 43 -74
79 -49 58 -90 98 -154 153 -41 35 -61 56 -86 87 -22 28 -53 48 -85 54 -5 1
-21 8 -35 16 -35 19 -108 17 -155 -5 -36 -17 -192 -164 -272 -257 -34 -39 -78
-52 -105 -31 -38 31 -143 79 -218 99 -47 13 -81 23 -76 24 5 0 2 8 -6 18 -27
30 -31 63 -33 242 -1 137 -5 183 -18 210 -16 36 -85 106 -124 127 -16 8 -99
12 -260 13 -131 1 -281 2 -333 4 -52 1 -111 -1 -130 -5z m522 -1592 c15 -2 40
-9 55 -15 15 -5 37 -14 48 -18 11 -4 22 -8 25 -9 66 -19 219 -126 295 -207 46
-48 76 -94 126 -193 98 -197 99 -202 100 -340 2 -159 -35 -321 -95 -429 -55
-99 -68 -117 -127 -178 -20 -21 -35 -38 -33 -38 6 0 -64 -60 -116 -100 -61
-48 -80 -57 -205 -99 -108 -37 -113 -37 -240 -34 -71 2 -149 3 -172 3 -28 0
-84 17 -160 47 -91 36 -135 61 -193 107 -94 76 -155 138 -176 179 -9 18 -20
34 -23 37 -19 14 -83 124 -87 148 -2 15 -7 38 -10 52 -3 14 -8 36 -10 50 -3
14 -14 68 -25 121 -18 88 -19 129 -4 199 3 14 8 38 10 54 3 16 11 38 17 50 6
11 10 21 8 21 -13 0 60 161 104 230 28 44 115 143 162 187 41 38 110 88 120
88 4 0 27 10 53 23 25 13 60 27 76 31 17 4 39 10 50 13 95 25 314 35 427 20z"/>
</g>
</svg>
